<svg width="10" height="15" viewBox="0 0 10 15" fill="none" xmlns="http://www.w3.org/2000/svg">
<path d="M4.53096 5.99411V14.2441C4.53096 14.5941 4.38096 14.7441 4.03096 14.7441C3.69096 14.7441 3.53096 14.5941 3.53096 14.2441V7.74411L4.53096 5.99411ZM0.0309567 0.24411C0.210957 0.51411 3.28096 4.24411 3.28096 4.24411L1.53096 8.49411C1.37096 8.88411 1.53096 9.72411 1.78096 9.49411C2.19096 9.11411 4.53096 4.74411 4.53096 4.74411L8.53096 3.54411C9.05096 3.40411 9.41096 2.74411 9.03096 2.74411C8.48096 2.74411 4.38096 3.20411 4.38096 3.20411L1.03096 0.24411C0.650957 -0.10589 -0.169043 -0.0558905 0.0309567 0.24411Z" fill="black"/>
</svg>
